# xmcd
#
# Track frame offsets: 
#        150
#        17428
#        31995
#
# Disc length: 670 seconds
#
# Revision: 0
# Processed by: cddbd v1.5.2PL0 Copyright (c) Steve Scherf et al.
# Submitted via: ExactAudioCopyFreeDBPlugin 1.0
#
DISCID=15029c03
DTITLE=Band für Steiermark - G'winnen is net ois im Leben
DYEAR=1997
DGENRE=Volksmusik
TTITLE0=G'winnen is net ois im Leben (Radio Version)
TTITLE1=G'winnen is net ois im Leben (Instrumental)
TTITLE2=Karaoke Version
EXTD=
EXTT0=
EXTT1=
EXTT2=
PLAYORDER=
